<svg xmlns="http://www.w3.org/2000/svg" viewBox="0 0 4777 512">
  <title>logo-invert</title>
  <g>
    <path d="M4749.69238,162.5q27.24609,37.75781,26.75,105.75h-176q2.49609,37.00781,21.75,56.25,19.24219,19.25391,54.75,19.25a165.8057,165.8057,0,0,0,44-5.75,163.03883,163.03883,0,0,0,37-14.75v49q-39,16.99219-89.5,17-56.50781,0-88.75-34.25-32.25-34.24219-32.25-97.25,0-64.5,30.5-98.75,30.49219-34.24219,86-34.25Q4722.44238,124.75,4749.69238,162.5Zm-128.75,19.25q-15,14.00391-19.5,47.5h121.5q-3.50391-31.99219-18-46.75-14.50781-14.74219-42.5-14.75Q4635.93457,167.75,4620.94238,181.75Z" style="fill: #fff"/>
    <path d="M4486.44336,25.75v303q0,20.00391-16.5,33.75-16.5,13.75781-41.5,20.25a204.1035,204.1035,0,0,1-51.5,6.5q-53.50781,0-88-30.25-34.5-30.24609-34.5-105.75,0-60.49219,29.5-94.5,29.49609-33.99609,87.5-34a164.45634,164.45634,0,0,1,31.25,3.5,124.94709,124.94709,0,0,1,31.75,10.5v-113Zm-52,158.5a103.452,103.452,0,0,0-26.75-10.75,116.5088,116.5088,0,0,0-28.75-3.75q-71.00391,0-71,84.5,0,42,16,65.75,15.99609,23.75391,56,23.75,22.99219,0,38.75-5.5,15.75-5.49609,15.75-14.5Z" style="fill: #fff"/>
    <path d="M4137.44531,43.25h56v47.5h-56Zm1.5,89h52.5l.5,249.5h-53Z" style="fill: #fff"/>
    <path d="M3872.69727,363.5q-29.25-25.74609-29.25-75.25V130.75h52.5v150q0,32.00391,14.25,47.25,14.25,15.25781,44.25,15.25,30,0,44.25-15.25,14.25-15.24609,14.25-47.25v-150h50.5v157.5q0,49.5-28.5,75.25-28.5,25.75781-80.5,25.75Q3901.94727,389.25,3872.69727,363.5Z" style="fill: #fff"/>
    <path d="M3743.2002,141.75q27.75,16.5,27.75,48.5v199q0,42.99609-28,70-28.00781,27-89,27-44.50781,0-81-13.5v-48q41.49609,15.49219,77,15.5,39.99609,0,54.5-14.25,14.49609-14.25,14.5-37.75v-17a154.23117,154.23117,0,0,1-31.75,13,121.09175,121.09175,0,0,1-33.75,5q-55.00781-1.00781-83.75-33.5-28.75781-32.49609-28.75-92.5,0-78,36-108t96-30Q3715.44238,125.25,3743.2002,141.75Zm-131.75,181.75q16.99219,22.75781,50.5,22.75,32.49609,0,57-14.5V200.25q0-17.49609-13.25-24-13.25391-6.49219-35.75-6.5-42.50391,0-59,24.5-16.5,24.50391-16.5,67.5Q3594.4502,300.75,3611.4502,323.5Z" style="fill: #fff"/>
    <path d="M3466.70313,162.5q27.24609,37.75781,26.75,105.75h-176q2.49609,37.00781,21.75,56.25,19.24219,19.25391,54.75,19.25a165.8057,165.8057,0,0,0,44-5.75,163.03883,163.03883,0,0,0,37-14.75v49q-39,16.99219-89.5,17-56.50781,0-88.75-34.25-32.25-34.24219-32.25-97.25,0-64.5,30.5-98.75,30.49219-34.24219,86-34.25Q3439.45313,124.75,3466.70313,162.5Zm-128.75,19.25q-15,14.00391-19.5,47.5h121.5q-3.50391-31.99219-18-46.75-14.50781-14.74219-42.5-14.75Q3352.94531,167.75,3337.95313,181.75Z" style="fill: #fff"/>
    <path d="M3151.45313,381.75v-346h52v346Z" style="fill: #fff"/>
    <path d="M3098.959,130.75l-103.5,266.5q-32.00391,81.49219-86.5,81.5-19.5,0-33-6v-45a66.94857,66.94857,0,0,0,25,5q19.5,0,30.75-13,11.25-13.00781,19.25-39.5l-102.5-249.5h59.5l68.5,187.5,68-187.5Z" style="fill: #fff"/>
    <path d="M2713.46582,369.75q-19.5-18.49219-19.5-52.5v-143h-40.5v-43.5h40.5v-70h54v70h61v43.5h-61v132.5q0,18.50391,6.5,26.75,6.49219,8.25,23,8.25a67.29472,67.29472,0,0,0,16.75-2.25,57.9192,57.9192,0,0,0,14.75-5.75v46.5q-17.50781,7.99219-41.5,8Q2732.96582,388.25,2713.46582,369.75Z" style="fill: #fff"/>
    <path d="M2440.96777,381.5q-24-6.24609-51-20.25v-55q19.5,16.00781,47.75,25.75a180.27647,180.27647,0,0,0,59.25,9.75q30.49219,0,46-12.5,15.49219-12.49219,15.5-35.5,0-15.49219-9-25.5a71.69656,71.69656,0,0,0-22.5-16.5q-13.5-6.49219-38-15.5l-11-4q-27.50391-9.49219-45.25-19.5a85.05569,85.05569,0,0,1-29.75-28.5q-12-18.49219-12-47.5a91.97882,91.97882,0,0,1,12-45.5q12-21.49219,37.5-35.25,25.5-13.74609,64-13.75,27.99609,0,46.75,5.25,18.75,5.25,44.75,17.75v54q-25.5-15.99609-44-23.75-18.50391-7.74609-44-7.75-29.50781,0-45,12-15.50391,12-15.5,31.5,0,16.5,8.5,26.75a61.11519,61.11519,0,0,0,22.25,16.5q13.74609,6.25781,39.75,14.75,30.49219,10.00781,50.75,20.75a92.94983,92.94983,0,0,1,33.25,29.5q12.99609,18.75,13,47.75,0,27.50391-12.25,50.25-12.25781,22.75781-38,36.5-25.75781,13.74609-64.25,13.75Q2464.96,387.75,2440.96777,381.5Z" style="fill: #fff"/>
  </g>
  <g>
    <path d="M2179.9707,25.75v303q0,20.00391-16.5,33.75-16.5,13.75781-41.5,20.25a204.1035,204.1035,0,0,1-51.5,6.5q-53.50781,0-88-30.25-34.5-30.24609-34.5-105.75,0-60.49219,29.5-94.5,29.49609-33.99609,87.5-34a164.45634,164.45634,0,0,1,31.25,3.5,124.94709,124.94709,0,0,1,31.75,10.5v-113Zm-52,158.5a103.452,103.452,0,0,0-26.75-10.75,116.5088,116.5088,0,0,0-28.75-3.75q-71.00391,0-71,84.5,0,42,16,65.75,15.99609,23.75391,56,23.75,22.99219,0,38.75-5.5,15.75-5.49609,15.75-14.5Z" style="fill: #fff"/>
    <path d="M1722.7207,132.5a281.84634,281.84634,0,0,1,61.75-7.25q52.5,0,77.5,22,24.99609,22.00781,25,68.5v166h-52.5v-159q0-52.5-59.5-52.5a157.65181,157.65181,0,0,0-54.5,9.5v202h-52.5V151.25Q1690.4707,139.75391,1722.7207,132.5Z" style="fill: #fff"/>
    <path d="M1377.47168,48.25h218.5v46.5h-163v96.5h142v47h-142.5v97h163.5v46.5h-218.5Z" style="fill: #fff"/>
  </g>
  <g>
    <path d="M1076.48047,369.75q-19.5-18.49219-19.5-52.5v-143h-40.5v-43.5h40.5v-70h54v70h61v43.5h-61v132.5q0,18.50391,6.5,26.75,6.49219,8.25,23,8.25a67.29473,67.29473,0,0,0,16.75-2.25,57.9192,57.9192,0,0,0,14.75-5.75v46.5q-17.50781,7.99219-41.5,8Q1095.98047,388.25,1076.48047,369.75Z" style="fill: #fff"/>
    <path d="M802.73047,132.5a281.84634,281.84634,0,0,1,61.75-7.25q52.5,0,77.5,22,24.99609,22.00781,25,68.5v166h-52.5v-159q0-52.5-59.5-52.5a157.65181,157.65181,0,0,0-54.5,9.5v202h-52.5V151.25Q770.48047,139.75391,802.73047,132.5Z" style="fill: #fff"/>
    <path d="M476.23633,355.25q-30.25781-33.99609-30.25-99,0-131.49609,120-131.5,60.49219,0,91,33.75,30.49219,33.75,30.5,97.75,0,64.00781-31.5,98.5-31.5,34.5-89.5,34.5Q506.48633,389.25,476.23633,355.25Zm158.75-99q0-43.99219-16.5-65.75-16.5-21.75-52.5-21.75-36.50391,0-52.25,22.25-15.75,22.25391-15.75,65.25,0,43.00781,16.25,65.75,16.24219,22.75781,51.75,22.75Q634.98633,344.75,634.98633,256.25Z" style="fill: #fff"/>
    <path d="M273.49316,153.75q13.99219-8.49609,47.5-18.5a231.62779,231.62779,0,0,1,66.5-10q19.99219,0,34,6.5v42a241.8641,241.8641,0,0,0-33.5-2,365.4829,365.4829,0,0,0-62,5v205h-52.5Z" style="fill: #fff"/>
    <path d="M0,48.25H214v46.5H55v99.5H194v47H55v140.5H0Z" style="fill: #fff"/>
  </g>
</svg>
